<svg xmlns="http://www.w3.org/2000/svg" viewBox="0 0 800 520">
  <defs>
    <radialGradient id="g3" cx="50%" cy="35%" r="60%">
      <stop offset="0%" stop-color="#ffe7a6"/>
      <stop offset="25%" stop-color="#f8bf54"/>
      <stop offset="70%" stop-color="#d97c1e"/>
      <stop offset="100%" stop-color="#9f4d14"/>
    </radialGradient>
  </defs>
  <rect width="800" height="520" fill="#f5eee8"/>
  <g transform="translate(50 25)">
    <g transform="translate(90 90) rotate(-7 170 160)">
      <circle cx="170" cy="160" r="148" fill="url(#g3)" stroke="#b75b1d" stroke-width="15"/>
      <circle cx="170" cy="160" r="110" fill="#f8d988" opacity="0.55"/>
      <path d="M92 150 C128 108, 192 104, 230 155 C206 197, 166 212, 118 205 C96 202, 90 180, 92 150 Z" fill="#fdf1d9"/>
    </g>
    <g transform="translate(280 30) rotate(8 170 150)">
      <circle cx="170" cy="150" r="145" fill="url(#g3)" stroke="#b75b1d" stroke-width="15"/>
      <circle cx="170" cy="150" r="109" fill="#f8d988" opacity="0.55"/>
      <path d="M100 138 C138 104, 205 112, 235 158 C210 200, 172 210, 130 199 C102 190, 90 170, 100 138 Z" fill="#fdf1d9"/>
    </g>
    <g transform="translate(520 150) rotate(-6 150 135)">
      <circle cx="150" cy="135" r="130" fill="url(#g3)" stroke="#b75b1d" stroke-width="15"/>
      <circle cx="150" cy="135" r="100" fill="#f8d988" opacity="0.55"/>
      <path d="M88 128 C120 98, 180 102, 210 140 C188 181, 152 192, 116 186 C95 182, 83 157, 88 128 Z" fill="#fdf1d9"/>
    </g>
  </g>
</svg>
